<svg xmlns="http://www.w3.org/2000/svg" viewBox="0 0 128 128">
  <defs>
    <linearGradient id="brandGradient" x1="0%" y1="0%" x2="100%" y2="100%">
      <stop offset="0%" style="stop-color:#6941C6"/>
      <stop offset="100%" style="stop-color:#7F56D9"/>
    </linearGradient>
  </defs>
  <rect width="128" height="128" rx="28" fill="url(#brandGradient)"/>
  <path d="M64 24C41.91 24 24 41.91 24 64s17.91 40 40 40 40-17.91 40-40S86.09 24 64 24zm-4 71.72c-15.8-1.96-28-15.4-28-31.72 0-2.48.32-4.84.84-7.16L52 76v4c0 4.4 3.6 8 8 8v7.72zm27.6-10.16c-1.04-3.24-4-5.56-7.6-5.56h-4V68c0-2.2-1.8-4-4-4H48v-8h8c2.2 0 4-1.8 4-4v-8h8c4.4 0 8-3.6 8-8v-1.64C87.72 39.12 96 50.24 96 64c0 8.32-3.2 15.88-8.4 21.56z" fill="white"/>
</svg>
